<?xml version="1.0" standalone="no"?>
<!DOCTYPE svg PUBLIC "-//W3C//DTD SVG 20010904//EN"
 "http://www.w3.org/TR/2001/REC-SVG-20010904/DTD/svg10.dtd">
<svg version="1.0" xmlns="http://www.w3.org/2000/svg"
 width="500.000000pt" height="500.000000pt" viewBox="0 0 500.000000 500.000000"
 preserveAspectRatio="xMidYMid meet">
<metadata>
Created by potrace 1.11, written by Peter Selinger 2001-2013
</metadata>
<g transform="translate(0.000000,500.000000) scale(0.100000,-0.100000)"
fill="#000000" stroke="none">
<path d="M2640 4680 c-199 -50 -318 -122 -427 -258 -82 -103 -154 -237 -179
-332 -11 -42 -18 -106 -18 -180 -1 -114 -1 -116 38 -194 21 -44 52 -91 68
-104 17 -14 35 -31 42 -37 47 -46 200 -90 283 -81 109 12 185 50 165 83 -11
18 -33 18 -116 -1 -99 -23 -161 -13 -247 40 -107 65 -147 142 -163 314 -4 44
24 177 53 252 36 94 156 241 245 300 95 63 149 87 228 100 157 25 270 -2 364
-89 86 -81 116 -138 164 -314 18 -66 20 -97 16 -218 -3 -78 -7 -144 -9 -149
-3 -4 -15 -54 -27 -112 -25 -120 -72 -241 -135 -350 -24 -41 -48 -87 -53 -101
-6 -14 -21 -38 -34 -55 -14 -16 -45 -60 -70 -99 -24 -38 -90 -125 -146 -192
-56 -67 -102 -129 -102 -137 0 -38 29 -21 118 71 73 74 113 127 161 209 35 60
76 126 90 148 48 72 91 148 91 162 0 7 10 32 23 56 28 53 72 167 91 233 8 28
22 77 31 110 9 33 18 85 20 115 1 30 6 84 11 120 4 36 8 74 7 85 -1 41 -21
161 -31 186 -6 15 -9 29 -6 31 9 9 -46 149 -72 185 -58 78 -178 173 -220 173
-7 0 -33 6 -56 14 -57 19 -154 27 -198 16z"/>
<path d="M1138 4025 c-2 -1 -28 -5 -58 -8 -102 -11 -197 -54 -269 -121 -80
-75 -135 -172 -147 -261 -2 -16 -9 -42 -15 -57 -13 -33 -7 -261 8 -280 5 -7
16 -33 23 -58 7 -25 17 -49 20 -55 4 -5 13 -26 20 -45 7 -19 19 -42 26 -50 7
-8 24 -38 38 -67 49 -97 217 -239 334 -283 66 -25 199 -27 260 -4 140 52 225
155 271 327 13 50 5 67 -29 67 -26 0 -29 -5 -50 -81 -31 -109 -78 -166 -177
-215 -71 -35 -79 -36 -151 -32 -119 7 -222 58 -315 155 -94 98 -105 116 -152
236 l-48 122 -1 130 c-1 125 0 133 32 211 76 188 227 285 421 271 104 -7 264
-51 316 -87 23 -16 66 -42 96 -58 58 -32 205 -163 282 -252 70 -81 203 -287
230 -356 8 -22 28 -63 44 -90 16 -27 55 -121 87 -209 57 -157 70 -185 87 -185
30 0 -13 194 -68 305 -28 57 -94 178 -103 190 -5 6 -28 48 -52 95 -37 73 -69
120 -131 200 -97 124 -254 286 -306 316 -25 15 -50 33 -56 39 -22 25 -113 83
-151 95 -21 7 -50 18 -64 26 -34 17 -245 75 -252 69z"/>
<path d="M3731 3718 c-56 -10 -164 -45 -216 -71 -94 -47 -142 -88 -194 -167
-51 -77 -52 -80 -58 -174 -3 -57 -2 -101 4 -108 5 -7 18 -41 28 -76 16 -53 28
-73 83 -128 46 -45 72 -64 86 -62 31 5 33 45 3 71 -95 83 -133 173 -124 293 5
67 10 83 48 141 71 109 163 166 330 204 97 23 120 22 324 -7 52 -8 227 -99
265 -138 109 -113 154 -197 164 -306 5 -51 -13 -144 -42 -210 -40 -92 -191
-245 -289 -293 -37 -18 -88 -45 -113 -59 -25 -14 -72 -33 -105 -42 -33 -9 -69
-21 -80 -25 -29 -13 -94 -29 -140 -36 -22 -4 -51 -8 -65 -11 -62 -11 -298 -14
-425 -5 -141 10 -163 13 -245 31 -25 6 -58 12 -75 14 -16 2 -49 7 -71 11 -24
4 -50 3 -59 -3 -17 -9 -16 -11 7 -26 65 -42 228 -72 418 -76 238 -5 310 -5
370 3 30 4 73 10 95 13 75 10 100 15 225 45 69 17 130 35 137 41 6 5 59 30
116 56 119 53 145 72 268 193 148 147 196 293 150 459 -33 120 -52 153 -135
235 -81 80 -135 118 -229 162 -93 43 -339 71 -456 51z"/>
<path d="M1490 2540 c-25 -4 -70 -10 -100 -14 -30 -4 -71 -8 -91 -11 -80 -9
-298 -69 -349 -95 -30 -16 -84 -41 -120 -56 -70 -30 -104 -56 -234 -180 -91
-88 -113 -122 -145 -230 -28 -94 -26 -148 11 -269 l31 -100 96 -95 c81 -81
111 -103 191 -142 58 -29 114 -49 145 -52 28 -3 75 -10 105 -15 95 -15 240 -6
322 19 134 41 258 115 302 179 73 109 77 120 82 209 5 78 3 95 -24 171 -25 70
-40 94 -92 147 -63 66 -87 76 -111 47 -17 -20 -20 -15 55 -93 78 -80 101 -142
94 -248 -12 -170 -145 -300 -361 -352 -99 -24 -146 -25 -277 -5 -83 12 -118
24 -198 64 -181 91 -285 232 -296 401 -4 63 21 170 52 219 25 40 99 127 158
184 93 92 363 214 543 247 194 35 508 33 706 -4 186 -35 229 -40 250 -29 15 9
13 12 -10 27 -32 21 -73 34 -130 43 -22 3 -51 10 -65 15 -14 5 -97 11 -185 14
-88 2 -194 5 -235 7 -41 2 -95 1 -120 -3z"/>
<path d="M2668 2288 c-6 -43 47 -231 84 -296 11 -21 36 -66 55 -102 19 -36 40
-72 47 -80 7 -8 23 -40 36 -70 60 -138 332 -466 440 -533 32 -19 108 -75 120
-87 34 -35 236 -113 355 -136 87 -17 209 5 295 53 92 52 188 164 219 256 11
31 17 57 15 59 -2 3 3 26 12 53 13 37 16 71 11 160 -5 103 -9 123 -48 222 -23
59 -53 122 -65 138 -12 17 -31 48 -42 71 -39 78 -190 206 -300 254 -54 24
-219 39 -255 23 -144 -63 -232 -146 -270 -253 -41 -115 -39 -150 8 -150 20 0
26 7 35 43 38 151 97 220 232 272 70 26 164 16 263 -30 62 -28 93 -51 159
-117 96 -97 102 -106 145 -218 18 -47 37 -95 42 -108 5 -13 12 -74 15 -136 7
-111 6 -116 -27 -211 -29 -82 -43 -107 -92 -160 -65 -72 -121 -108 -192 -123
-84 -19 -120 -20 -191 -7 -186 34 -218 45 -293 98 -25 17 -64 41 -85 52 -67
34 -241 200 -316 300 -34 46 -170 263 -170 271 0 2 -27 59 -60 126 -32 68 -73
166 -91 218 -31 96 -66 170 -80 170 -4 0 -9 -10 -11 -22z"/>
<path d="M2385 2238 c-44 -25 -184 -179 -218 -242 -12 -21 -26 -46 -32 -55 -5
-9 -25 -43 -44 -76 -19 -33 -44 -71 -56 -85 -41 -46 -149 -296 -199 -460 -32
-106 -35 -121 -40 -195 -7 -82 -17 -168 -21 -182 -2 -7 1 -38 6 -70 40 -224
62 -293 115 -363 46 -60 102 -111 155 -139 112 -60 296 -75 379 -32 9 5 31 12
50 16 41 8 125 53 193 102 108 79 275 334 292 448 2 11 7 38 12 60 5 22 9 85
8 140 -1 95 -3 104 -39 177 -59 119 -132 176 -264 209 -96 23 -102 23 -198 -1
-84 -22 -108 -37 -99 -62 10 -26 33 -29 94 -13 122 31 190 21 285 -43 60 -41
74 -56 103 -113 52 -106 59 -214 23 -354 -26 -103 -57 -160 -139 -261 -46 -57
-89 -97 -141 -131 -105 -70 -128 -80 -206 -95 -187 -35 -321 9 -428 138 -53
64 -59 77 -120 274 -11 33 -14 85 -11 190 3 139 7 168 52 350 15 62 85 229
107 259 6 8 27 44 46 81 47 90 140 228 214 318 133 159 155 188 159 205 6 19
-9 22 -38 5z"/>
</g>
</svg>
